{
  "accessors": [
    {
      "bufferView": 2,
      "componentType": 5126,
      "count": 10532,
      "max": [
        1788.6749267578125,
        1728.0234375,
        490.7585144042969
      ],
      "min": [
        -1655.0762939453125,
        -1733.59033203125,
        -364.5645446777344
      ],
      "type": "VEC3"
    },
    {
      "bufferView": 2,
      "byteOffset": 126384,
      "componentType": 5126,
      "count": 10532,
      "max": [
        0.9923871755599976,
        0.9942809343338013,
        1.0
      ],
      "min": [
        -0.9556289911270142,
        -0.9957241415977478,
        -0.8140607476234436
      ],
      "type": "VEC3"
    },
    {
      "bufferView": 1,
      "componentType": 5126,
      "count": 10532,
      "max": [
        0.9985882639884949,
        0.9990360140800476
      ],
      "min": [
        0.0010676366509869695,
        0.0012963267508894205
      ],
      "type": "VEC2"
    },
    {
      "bufferView": 0,
      "componentType": 5125,
      "count": 58119,
      "type": "SCALAR"
    }
  ],
  "asset": {
    "extras": {
      "author": "3dhdscan (https://sketchfab.com/3dhdscan)",
      "license": "CC-BY-4.0 (http://creativecommons.org/licenses/by/4.0/)",
      "source": "https://sketchfab.com/3d-models/a-pile-of-sand-107f6a1f6aa74449bcd32ef136311d86",
      "title": "A pile of sand"
    },
    "generator": "Sketchfab-12.67.0",
    "version": "2.0"
  },
  "bufferViews": [
    {
      "buffer": 0,
      "byteLength": 232476,
      "name": "floatBufferViews",
      "target": 34963
    },
    {
      "buffer": 0,
      "byteLength": 84256,
      "byteOffset": 232476,
      "byteStride": 8,
      "name": "floatBufferViews",
      "target": 34962
    },
    {
      "buffer": 0,
      "byteLength": 252768,
      "byteOffset": 316732,
      "byteStride": 12,
      "name": "floatBufferViews",
      "target": 34962
    }
  ],
  "buffers": [
    {
      "byteLength": 569500,
      "uri": "scene.bin"
    }
  ],
  "images": [
    {
      "uri": "textures/hromada_pisek_01_30k_Material_baseColor.png"
    },
    {
      "uri": "textures/hromada_pisek_01_30k_Material_metallicRoughness.png"
    }
  ],
  "materials": [
    {
      "alphaMode": "BLEND",
      "name": "hromada_pisek_01_30k_Material",
      "occlusionTexture": {
        "index": 1
      },
      "pbrMetallicRoughness": {
        "baseColorTexture": {
          "index": 0
        },
        "metallicFactor": 0.0,
        "metallicRoughnessTexture": {
          "index": 1
        },
        "roughnessFactor": 0.8275533536999999
      }
    }
  ],
  "meshes": [
    {
      "name": "hromada_pisek_01_30k_hromada_pisek_01_30k_Material_0",
      "primitives": [
        {
          "attributes": {
            "NORMAL": 1,
            "POSITION": 0,
            "TEXCOORD_0": 2
          },
          "indices": 3,
          "material": 0,
          "mode": 4
        }
      ]
    }
  ],
  "nodes": [
    {
      "children": [
        1
      ],
      "matrix": [
        0.14884346723556519,
        0.0,
        0.0,
        0.0,
        0.0,
        3.3049888877992914e-17,
        -0.14884346723556519,
        0.0,
        0.0,
        0.14884346723556519,
        3.3049888877992914e-17,
        0.0,
        0.0,
        0.0,
        0.0,
        1.0
      ],
      "name": "Sketchfab_model"
    },
    {
      "children": [
        2
      ],
      "matrix": [
        1.0,
        0.0,
        0.0,
        0.0,
        0.0,
        0.0,
        1.0,
        0.0,
        0.0,
        -1.0,
        0.0,
        0.0,
        0.0,
        0.0,
        0.0,
        1.0
      ],
      "name": "hromada_pisek_01_30k_uw.FBX"
    },
    {
      "children": [
        3
      ],
      "name": "RootNode"
    },
    {
      "children": [
        4
      ],
      "matrix": [
        0.009999999776482582,
        0.0,
        0.0,
        0.0,
        0.0,
        2.2204459996194763e-18,
        -0.009999999776482582,
        0.0,
        0.0,
        0.009999999776482582,
        2.2204459996194763e-18,
        0.0,
        0.0,
        0.0,
        0.0,
        1.0
      ],
      "name": "hromada_pisek_01_30k"
    },
    {
      "mesh": 0,
      "name": "hromada_pisek_01_30k_hromada_pisek_01_30k_Material_0"
    }
  ],
  "samplers": [
    {
      "magFilter": 9729,
      "minFilter": 9987,
      "wrapS": 10497,
      "wrapT": 10497
    }
  ],
  "scene": 0,
  "scenes": [
    {
      "name": "Sketchfab_Scene",
      "nodes": [
        0
      ]
    }
  ],
  "textures": [
    {
      "sampler": 0,
      "source": 0
    },
    {
      "sampler": 0,
      "source": 1
    }
  ]
}
